<svg width="52" height="51" viewBox="0 0 52 51" fill="none" xmlns="http://www.w3.org/2000/svg">
<rect width="50.2023" height="50.2023" rx="14.7654" transform="matrix(1 0 0 -1 0.910156 50.4443)" fill="#2BBC5D" fill-opacity="0.25"/>
<g clip-path="url(#clip0_818_105)">
<path d="M37.7138 35.0653L28.8159 40.1969C27.3133 41.0635 25.4463 41.0634 23.9436 40.1969L15.0457 35.0653C13.5402 34.1971 12.605 32.578 12.605 30.8399V20.5847C12.605 18.8466 13.5402 17.2275 15.0457 16.3593L23.9436 11.2277C25.4465 10.361 27.3135 10.3613 28.8159 11.2277L37.7138 16.3593C39.2193 17.2275 40.1545 18.8466 40.1545 20.5847V30.8399C40.1545 32.578 39.2193 34.1971 37.7138 35.0653ZM37.7897 20.5847C37.7897 19.6894 37.308 18.8554 36.5325 18.4082L27.6346 13.2766C26.8605 12.8302 25.8989 12.8302 25.1249 13.2766L16.2269 18.4082C15.4515 18.8555 14.9697 19.6894 14.9697 20.5847V30.8399C14.9697 31.7352 15.4514 32.5692 16.227 33.0163L25.1249 38.1479C25.899 38.5944 26.8609 38.5942 27.6346 38.1479L36.5326 33.0164C37.308 32.5692 37.7897 31.7352 37.7897 30.8399V20.5847Z" fill="#2BBC5D"/>
<path d="M25.2561 26.6151L20.8646 30.3315C20.3662 30.7533 19.6201 30.6912 19.1982 30.1926C18.7764 29.694 18.8386 28.9479 19.3371 28.526L22.6619 25.7123L19.3371 22.8986C18.8386 22.4767 18.7765 21.7306 19.1982 21.232C19.6211 20.7323 20.3674 20.6723 20.8646 21.0932L25.2561 24.8096C25.8147 25.2823 25.8131 26.1436 25.2561 26.6151Z" fill="#2BBC5D"/>
<path d="M32.6586 23.1785H27.3381C26.6851 23.1785 26.1558 22.6491 26.1558 21.9959C26.1558 21.3428 26.6851 20.8133 27.3381 20.8133H32.6586C33.3115 20.8133 33.841 21.3428 33.841 21.9959C33.841 22.6491 33.3116 23.1785 32.6586 23.1785Z" fill="#2BBC5D"/>
</g>
<defs>
<clipPath id="clip0_818_105">
<rect width="30.269" height="30.269" fill="white" transform="matrix(1 0 0 -1 11.2466 40.8468)"/>
</clipPath>
</defs>
</svg>
