<svg width="52" height="51" viewBox="0 0 52 51" fill="none" xmlns="http://www.w3.org/2000/svg">
<rect width="50.2023" height="50.2023" rx="14.7654" transform="matrix(1 0 0 -1 0.910645 50.6121)" fill="#5A9BE9" fill-opacity="0.25"/>
<g clip-path="url(#clip0_818_118)">
<path d="M39.8896 40.2763H36.2833C35.7931 40.2763 35.3965 39.8797 35.3965 39.3895V38.5027H28.1388C27.7715 39.5327 26.7964 40.2763 25.6418 40.2763C24.4872 40.2763 23.5121 39.5327 23.1448 38.5027H15.8872V39.3895C15.8872 39.8797 15.4905 40.2763 15.0004 40.2763H11.3941C10.904 40.2763 10.5073 39.8797 10.5073 39.3895V35.8424C10.5073 35.3522 10.904 34.9556 11.3941 34.9556H15.0004C15.4905 34.9556 15.8872 35.3522 15.8872 35.8424V36.741H19.5291C16.4516 34.8184 14.4223 31.4415 14.1797 27.6594C13.1157 27.3111 12.34 26.3206 12.34 25.1418C12.34 23.6748 13.5334 22.4814 15.0004 22.4814C16.4674 22.4814 17.6607 23.6748 17.6607 25.1418C17.6607 26.2733 16.9477 27.2354 15.9498 27.6193C16.2524 31.836 19.1946 35.39 23.2873 36.404C23.7299 35.5481 24.6136 34.9556 25.6418 34.9556C26.6701 34.9556 27.5537 35.5481 27.9964 36.404C32.089 35.39 35.0313 31.836 35.3338 27.6194C34.336 27.2354 33.6229 26.2733 33.6229 25.1418C33.6229 23.6748 34.8163 22.4814 36.2833 22.4814C37.7503 22.4814 38.9436 23.6748 38.9436 25.1418C38.9436 26.3206 38.1679 27.3111 37.1039 27.6594C36.8613 31.4415 34.8321 34.8065 31.7545 36.7292H35.3965V35.8424C35.3965 35.3522 35.7931 34.9556 36.2833 34.9556H39.8896C40.3797 34.9556 40.7763 35.3522 40.7763 35.8424V39.3895C40.7763 39.8797 40.3797 40.2763 39.8896 40.2763Z" fill="#5398E9"/>
<path d="M31.6743 11.1072C31.2105 12.5266 29.8742 13.6136 28.3016 13.6136H22.9809C21.4083 13.6136 20.072 12.5266 19.6081 11.1072C19.4293 10.56 19.8949 10.0073 20.4707 10.0073H30.8118C31.3876 10.0073 31.8532 10.56 31.6743 11.1072Z" fill="#5398E9"/>
<path d="M33.4738 22.0865L26.5285 32.5046V24.0917C27.5585 23.7244 28.3021 22.7493 28.3021 21.5947C28.3021 20.1277 27.1087 18.9343 25.6417 18.9343C24.1748 18.9343 22.9814 20.1277 22.9814 21.5947C22.9814 22.7493 23.725 23.7244 24.755 24.0917V32.5046L17.8096 22.0865C17.5749 21.735 17.6217 21.2664 17.9205 20.9677C19.5484 19.3397 20.5891 17.2424 20.9907 14.9928C21.6067 15.2427 22.2767 15.3872 22.9814 15.3872H28.3021C29.0068 15.3872 29.6768 15.2427 30.2928 14.9929C30.6944 17.2427 31.735 19.3397 33.363 20.9677C33.6618 21.2664 33.7086 21.735 33.4738 22.0865Z" fill="#5398E9"/>
<path d="M25.6412 22.4814C25.1522 22.4814 24.7549 22.084 24.7549 21.595C24.7549 21.106 25.1522 20.7087 25.6412 20.7087C26.1302 20.7087 26.5275 21.106 26.5275 21.595C26.5275 22.084 26.1302 22.4814 25.6412 22.4814Z" fill="#5398E9"/>
</g>
<defs>
<clipPath id="clip0_818_118">
<rect width="30.269" height="30.269" fill="white" transform="matrix(1 0 0 -1 10.5073 40.2763)"/>
</clipPath>
</defs>
</svg>
