<svg width="90" height="90" viewBox="0 0 90 90" fill="none" xmlns="http://www.w3.org/2000/svg">
<rect width="90" height="90" rx="30" fill="url(#paint0_linear)"/>
<path fill-rule="evenodd" clip-rule="evenodd" d="M27.8715 80.2114C27.2142 79.7514 26.9987 78.8759 27.3676 78.1634L39.8006 54.1451C40.2071 53.3598 41.1733 53.0527 41.9587 53.4592C42.744 53.8657 43.0511 54.8319 42.6446 55.6173L35.7164 69.0012L57.9413 44.8324L40.9424 41.8113C40.0717 41.6565 39.4913 40.8253 39.646 39.9546C39.8008 39.0839 40.6321 38.5035 41.5027 38.6582L61.3767 42.1903C61.9523 42.2927 62.4265 42.7006 62.6135 43.2545C62.8006 43.8085 62.6709 44.4203 62.2751 44.8507L29.9682 79.9833C29.4251 80.5739 28.5288 80.6714 27.8715 80.2114Z" fill="white"/>
<path fill-rule="evenodd" clip-rule="evenodd" d="M61.8262 10.2894C62.4836 10.7494 62.699 11.6248 62.3302 12.3373L49.8972 36.3556C49.4907 37.141 48.5245 37.4481 47.7391 37.0415C46.9538 36.635 46.6467 35.6688 47.0532 34.8834L53.9814 21.4995L31.7564 45.6683L48.7554 48.6895C49.6261 48.8442 50.2065 49.6755 50.0517 50.5462C49.897 51.4168 49.0657 51.9972 48.195 51.8425L28.3211 48.3104C27.7454 48.2081 27.2713 47.8001 27.0842 47.2462C26.8971 46.6923 27.0269 46.0804 27.4226 45.65L59.7295 10.5174C60.2726 9.92685 61.1689 9.82936 61.8262 10.2894Z" fill="white"/>
<defs>
<linearGradient id="paint0_linear" x1="0" y1="0" x2="90" y2="90" gradientUnits="userSpaceOnUse">
<stop stop-color="#F7B733"/>
<stop offset="0.377834" stop-color="#F8982C"/>
<stop offset="1" stop-color="#FC4A1A"/>
</linearGradient>
</defs>
</svg>
