<svg width="52" height="51" viewBox="0 0 52 51" fill="none" xmlns="http://www.w3.org/2000/svg">
<rect width="50.2023" height="50.2023" rx="14.7654" transform="matrix(1 0 0 -1 0.910645 50.6121)" fill="#BE49E8" fill-opacity="0.25"/>
<g clip-path="url(#clip0_818_138)">
<path d="M40.361 40.2763C27.5408 40.2763 16.9958 30.4136 15.8784 17.8798C18.0086 20.884 20.618 23.7747 23.8757 27.0979C24.1179 27.3476 24.519 27.3527 24.7674 27.1067C25.0159 26.8633 25.0197 26.4635 24.7762 26.215C24.2856 25.7156 23.7875 25.1972 23.2867 24.6726C23.0004 24.3736 22.7204 24.076 22.4455 23.7834C22.3951 23.7292 22.3446 23.6749 22.2942 23.6195C18.2684 19.3087 15.3903 15.5566 13.3004 10.8964C13.1579 10.5786 13.3004 10.2053 13.617 10.0628C13.7015 10.025 13.7885 10.0073 13.8756 10.0073C14.1165 10.0073 14.3473 10.146 14.4519 10.3793C15.196 12.0378 16.0599 13.5765 17.0311 15.0736C25.8394 15.2993 33.8569 20.1991 38.0593 27.9959C38.164 28.1914 38.1589 28.4272 38.0454 28.6189C37.9306 28.8081 37.725 28.9254 37.5031 28.9254H35.1673L39.3558 31.3192C39.4882 31.3949 39.5904 31.5172 39.6396 31.661C40.5375 34.2717 40.9916 36.9581 40.9916 39.6457C40.9916 39.9938 40.7091 40.2763 40.361 40.2763Z" fill="#BE49E8"/>
</g>
<defs>
<clipPath id="clip0_818_138">
<rect width="30.269" height="30.269" fill="white" transform="matrix(1 0 0 -1 11.9839 40.2763)"/>
</clipPath>
</defs>
</svg>
