<svg width="53" height="35" viewBox="0 0 53 35" fill="none" xmlns="http://www.w3.org/2000/svg">
<path d="M52.7656 23.5703C52.7656 25.1328 52.4401 26.5977 51.7891 27.9648C51.2031 29.332 50.3893 30.5365 49.3477 31.5781C48.3711 32.5547 47.1992 33.3359 45.832 33.9219C44.4648 34.5078 43 34.8008 41.4375 34.8008C39.875 34.8008 38.4102 34.5078 37.043 33.9219C35.6758 33.3359 34.4714 32.5547 33.4297 31.5781C32.4531 30.5365 31.6719 29.332 31.0859 27.9648C30.5 26.5977 30.207 25.1328 30.207 23.5703C30.207 20.9661 30.6302 18.5573 31.4766 16.3438C32.3229 14.0651 33.4622 11.9492 34.8945 9.99609C36.3919 8.04297 38.0846 6.2526 39.9727 4.625C41.9258 2.9974 43.944 1.53255 46.0273 0.230469L49.6406 3.35547C48.4036 4.46224 47.2643 5.86198 46.2227 7.55469C45.181 9.2474 44.4974 10.9401 44.1719 12.6328C46.6458 13.2188 48.6966 14.5534 50.3242 16.6367C51.9518 18.6549 52.7656 20.9661 52.7656 23.5703ZM22.7852 23.5703C22.7852 25.1328 22.4596 26.5977 21.8086 27.9648C21.2227 29.332 20.4089 30.5365 19.3672 31.5781C18.3906 32.5547 17.1862 33.3359 15.7539 33.9219C14.3867 34.5078 12.9219 34.8008 11.3594 34.8008C9.79688 34.8008 8.33203 34.5078 6.96484 33.9219C5.66276 33.3359 4.49089 32.5547 3.44922 31.5781C2.47266 30.5365 1.69141 29.332 1.10547 27.9648C0.519531 26.5977 0.226562 25.1328 0.226562 23.5703C0.226562 20.9661 0.64974 18.5573 1.49609 16.3438C2.34245 14.0651 3.48177 11.9492 4.91406 9.99609C6.41146 8.04297 8.10417 6.2526 9.99219 4.625C11.9453 2.9974 13.9635 1.53255 16.0469 0.230469L19.5625 3.35547C18.3906 4.46224 17.2839 5.86198 16.2422 7.55469C15.2005 9.2474 14.5169 10.9401 14.1914 12.6328C16.6654 13.2188 18.7161 14.5534 20.3438 16.6367C21.9714 18.6549 22.7852 20.9661 22.7852 23.5703Z" fill="#F8982C"/>
</svg>
